<?xml version="1.0" encoding="UTF-8" standalone="no"?>
<!-- Created with Inkscape (http://www.inkscape.org/) -->

<svg
   xmlns:dc="http://purl.org/dc/elements/1.1/"
   xmlns:cc="http://creativecommons.org/ns#"
   xmlns:rdf="http://www.w3.org/1999/02/22-rdf-syntax-ns#"
   xmlns:svg="http://www.w3.org/2000/svg"
   xmlns="http://www.w3.org/2000/svg"
   xmlns:sodipodi="http://sodipodi.sourceforge.net/DTD/sodipodi-0.dtd"
   xmlns:inkscape="http://www.inkscape.org/namespaces/inkscape"
   width="40.487186mm"
   height="40.487186mm"
   viewBox="0 0 40.487186 40.487186"
   version="1.1"
   id="svg8"
   inkscape:version="0.92.1 r15371"
   sodipodi:docname="circle.svg">
  <defs
     id="defs2" />
  <sodipodi:namedview
     id="base"
     pagecolor="#ffffff"
     bordercolor="#666666"
     borderopacity="1.0"
     inkscape:pageopacity="0.0"
     inkscape:pageshadow="2"
     inkscape:zoom="1.4"
     inkscape:cx="195.92697"
     inkscape:cy="-80.135574"
     inkscape:document-units="mm"
     inkscape:current-layer="layer1"
     showgrid="false"
     inkscape:snap-others="false"
     inkscape:snap-grids="false"
     inkscape:snap-to-guides="false"
     inkscape:snap-nodes="true"
     inkscape:snap-global="false"
     inkscape:window-width="1920"
     inkscape:window-height="1027"
     inkscape:window-x="-8"
     inkscape:window-y="-8"
     inkscape:window-maximized="1" />
  <metadata
     id="metadata5">
    <rdf:RDF>
      <cc:Work
         rdf:about="">
        <dc:format>image/svg+xml</dc:format>
        <dc:type
           rdf:resource="http://purl.org/dc/dcmitype/StillImage" />
        <dc:title></dc:title>
      </cc:Work>
    </rdf:RDF>
  </metadata>
  <g
     inkscape:label="Layer 1"
     inkscape:groupmode="layer"
     id="layer1"
     transform="translate(30.070976,75.139425)">
    <circle
       style="opacity:1;fill:#ffb80a;fill-opacity:1;fill-rule:nonzero;stroke:#000000;stroke-width:1.07599998;stroke-linecap:round;stroke-linejoin:bevel;stroke-miterlimit:4;stroke-dasharray:none;stroke-dashoffset:0;stroke-opacity:0.9748744;paint-order:fill markers stroke"
       id="path4485"
       cy="-54.895832"
       cx="-9.827383"
       r="19.705593" />
    <g
       id="g8512"
       transform="translate(23.386084,-7.3499121)" />
    <g
       id="g8596"
       transform="translate(-50.78121,56.39387)">
      <path
         sodipodi:nodetypes="cscccsscsssssssssssssssssssssssssssccc"
         inkscape:connector-curvature="0"
         id="path8548"
         d="m 97.973261,12.796466 c -2.063519,1.179477 -4.085255,2.31443 -6.330701,2.732768 -1.537094,0.286368 -3.304554,0.341698 -4.763518,0.41219 -1.021427,-0.02156 -2.281635,-0.04615 -5.073308,-0.405109 -4.048438,-0.463579 -5.933804,-1.406211 -8.08253,-3.2533 C 70.812984,9.1431434 70.373257,7.6195462 68.710899,5.2217399 67.301413,3.1886793 65.204926,1.7056989 63.73166,-0.28162881 h -4e-6 C 63.124972,-1.1000027 62.531414,-1.95396 62.15927,-2.9022794 c -0.619599,-1.5789085 -1.415104,-3.3232555 -1.048265,-4.9792394 0.283398,-1.2793121 1.472928,-2.1790892 2.358589,-3.1447782 1.505338,-1.641356 3.1502,-3.184399 4.97924,-4.45511 1.54034,-1.07014 3.213689,-1.987659 4.979239,-2.62065 2.43517,-0.873066 5.038759,-1.207812 7.599888,-1.572392 3.296589,-0.469273 6.687729,-0.161768 9.958479,-0.786197 1.167079,-0.222809 2.355198,-0.495314 3.406845,-1.048263 2.366761,-1.244427 4.004703,-3.590147 6.289565,-4.979233 3.27411,-1.990501 6.92198,-3.301619 10.48261,-4.717176 4.21017,-1.67379 8.37351,-3.702118 12.84119,-4.455108 4.30701,-0.72591 8.21137,-0.393098 12.57913,-0.393098 2.88272,0 6.36668,-0.269215 9.17228,0.393098 3.23182,0.762927 6.21637,2.513496 8.91021,4.455108 0.60132,0.433407 1.07805,1.020076 1.5724,1.57239 1.49216,1.667136 2.9083,3.409552 4.19305,5.241307 1.05814,1.508673 1.46638,2.288132 1.96548,4.062009 0.37857,1.345439 0.53867,3.502766 0.91723,4.848205 0.49911,1.773877 2.02424,3.086594 2.88271,4.717172 1.69412,3.2178155 3.87403,6.4669981 4.19305,10.0895087 0.18963,2.1527133 1.1679,5.5196569 0.95752,7.6704367 -0.34061,3.4819476 -1.0615,5.3933586 -1.93272,8.7817156 -0.86931,3.380955 -3.5247,6.101935 -5.31437,9.099202 -1.34427,2.251311 -2.98967,4.366374 -3.93098,6.813697 -1.79599,4.669447 -2.61771,9.700555 -3.14477,14.67565 -0.38652,3.648495 0.65017,7.395894 0,11.006736 -0.87696,4.870373 -1.36809,7.497136 -4.74897,9.582409 -24.31297,14.99585 -73.101265,36.45554 -76.540439,9.998106 -0.656207,-17.884293 2.535797,-35.594987 3.980176,-52.33866 0.232359,-2.441141 0.249202,-5.10862 -0.40695,-7.471374"
         style="fill:none;stroke:#000000;stroke-width:0.51886255px;stroke-linecap:butt;stroke-linejoin:miter;stroke-opacity:1" />
      <path
         sodipodi:nodetypes="cssc"
         inkscape:connector-curvature="0"
         id="path8550"
         d="m 80.159866,-19.5598 c 0,0 7.206616,0.984918 10.040377,2.768067 2.830864,1.781325 5.497919,4.425524 6.551625,7.5998899 0.498536,1.5018763 1.309136,3.3481198 1.44136,4.9792394"
         style="fill:none;stroke:#000000;stroke-width:0.51886255px;stroke-linecap:round;stroke-linejoin:miter;stroke-opacity:1" />
      <path
         sodipodi:nodetypes="cccc"
         inkscape:connector-curvature="0"
         id="path8552"
         d="m 69.374007,6.3004341 c 4.963871,5.7016969 5.390774,7.3862799 13.062536,8.2397449 6.105539,0.785975 11.533552,0.569095 16.149785,-4.077134 0.535891,-1.2084259 0.524129,-3.9309749 0.524129,-3.9309749"
         style="fill:none;stroke:#000000;stroke-width:0.51886255px;stroke-linecap:round;stroke-linejoin:miter;stroke-opacity:1" />
      <path
         sodipodi:nodetypes="caaaaaaaac"
         inkscape:connector-curvature="0"
         id="path8554"
         d="m 134.52235,9.8847411 c 1.46364,0.2931829 2.63065,1.4829689 4.07676,1.8530819 2.01023,0.514493 4.13312,0.42665 6.20782,0.463266 1.57609,0.02782 3.15283,-0.07594 4.72536,-0.1853 0.61928,-0.04307 1.24654,-0.05313 1.85308,-0.1853 2.07802,-0.452817 3.91081,-2.1034617 6.03723,-2.0641484 1.22378,0.022625 2.25677,0.9607484 3.4282,1.3155544 0.81692,0.247431 1.65299,0.683902 2.49799,0.563276 0.69469,-0.09917 1.25294,-0.637897 1.84204,-1.019192 0.52885,-0.342296 1.5119,-1.1339286 1.5119,-1.1339286"
         style="fill:none;stroke:#000000;stroke-width:0.51886255px;stroke-linecap:butt;stroke-linejoin:miter;stroke-opacity:1" />
      <path
         sodipodi:nodetypes="sssssssssssssssssssssss"
         inkscape:connector-curvature="0"
         id="path8556"
         d="m 148.13513,6.8351787 c -1.02726,-0.4928839 -2.03192,-1.0836616 -2.87228,-1.8530817 -0.77916,-0.7133908 -1.41798,-1.5865115 -1.94574,-2.5016596 -0.616,-1.0681752 -1.25941,-2.20204368 -1.38982,-3.42819752 -0.13256,-1.24712928 0.18258,-2.54175728 0.64858,-3.70616338 0.62054,-1.5508026 1.86791,-2.7698437 2.77962,-4.1694294 0.65939,-1.012238 1.22056,-2.0913871 1.94574,-3.0575831 0.81447,-1.08517 1.60734,-2.235768 2.68696,-3.057586 0.90127,-0.686056 1.96986,-1.166587 3.0576,-1.482462 1.04483,-0.303414 2.15503,-0.387761 3.24288,-0.370618 1.27961,0.02016 2.63666,0.02002 3.79882,0.555924 1.19256,0.549919 2.04575,1.656396 2.96494,2.594314 0.7058,0.720182 1.33558,1.513521 1.94572,2.316352 0.79307,1.043526 1.61207,2.0836562 2.2237,3.242891 0.75742,1.4355769 1.51521,2.9355431 1.76044,4.5400473 0.14022,0.9179367 0.01,1.8716941 -0.18532,2.77961959 -0.29732,1.38545429 -0.73824,2.77829591 -1.48246,3.98412341 -0.64272,1.0413792 -1.45585,2.0514816 -2.50166,2.6869656 -0.98616,0.5992358 -2.18697,0.8153715 -3.33554,0.9265438 -1.97343,0.1910068 -3.95109,-0.5871832 -5.92986,-0.4632719 -1.07001,0.067009 -2.09013,0.4886205 -3.15024,0.6485779 -0.95113,0.14351 -1.91648,0.3860788 -2.87228,0.27796 -0.48522,-0.05489 -0.94952,-0.2520231 -1.3898,-0.463266 z"
         style="fill:none;stroke:#000000;stroke-width:0.51886255px;stroke-linecap:butt;stroke-linejoin:miter;stroke-opacity:1" />
      <path
         sodipodi:nodetypes="csssssssssscc"
         inkscape:connector-curvature="0"
         id="path8562"
         d="m 111.9074,-16.420984 c 0.90589,-1.16573 2.17871,-2.071947 3.52085,-2.686965 0.54516,-0.249813 1.16462,-0.438588 1.76043,-0.37062 0.94729,0.108054 1.85367,0.604097 2.59431,1.204504 0.82963,0.672555 1.64688,1.448272 2.31635,2.594313 0.27251,0.466498 -0.84967,-0.845091 -1.38981,-0.833886 -0.67389,0.01392 -1.0963,0.790927 -1.68929,1.111366 -0.39411,0.212968 -0.75519,0.488777 -1.15119,0.698196 -0.48423,0.256073 -0.98592,0.459642 -1.47074,0.714577 -0.60862,0.320029 -1.27522,0.516921 -1.8966,0.811407 -0.72402,0.343133 -1.31485,0.125037 -2.09829,0.292895 -0.51427,0.110192 -2.14838,0.759052 -2.14838,0.759052 -0.16877,-0.521239 1.15014,-3.61295 1.65236,-4.294839 z"
         style="fill:none;stroke:#000000;stroke-width:0.51886255px;stroke-linecap:butt;stroke-linejoin:miter;stroke-opacity:1" />
      <path
         sodipodi:nodetypes="csssssssssssssc"
         inkscape:connector-curvature="0"
         id="path8564"
         d="m 113.22691,-16.465929 c -0.0636,0.397876 -0.0324,0.828793 0.11662,1.203123 0.15928,0.39994 0.43317,0.783148 0.79318,1.019188 0.3117,0.204368 0.71055,0.290268 1.08307,0.277962 0.54419,-0.01804 1.04026,-0.32346 1.55195,-0.509596 0.54705,-0.198996 1.1119,-0.367121 1.62145,-0.648576 0.36771,-0.203108 0.80125,-0.38211 1.01919,-0.741232 0.24303,-0.400479 0.30558,-0.931534 0.20847,-1.389814 -0.10927,-0.515675 -0.44415,-0.996398 -0.8487,-1.334335 -0.24045,-0.200855 -0.55364,-0.459684 -0.85839,-0.53239 -0.32968,-0.07866 -0.74602,-0.196861 -1.08435,-0.176604 -0.33963,0.02034 -0.82026,0.187174 -1.14202,0.297773 -0.73284,0.251913 -1.34599,0.651787 -1.88058,1.212801 -0.33189,0.3483 -0.50399,0.846617 -0.57989,1.321699 z"
         style="fill:none;stroke:#000000;stroke-width:0.51886255px;stroke-linecap:butt;stroke-linejoin:miter;stroke-opacity:1" />
      <path
         sodipodi:nodetypes="cssc"
         inkscape:connector-curvature="0"
         id="path8566"
         d="m 159.49763,-22.305595 c -0.39996,0.41725 -1.24188,2.083674 -1.07792,2.64172 0.34299,1.167369 1.48248,3.335543 1.48248,3.335543 v 0"
         style="fill:none;stroke:#000000;stroke-width:0.51886255px;stroke-linecap:round;stroke-linejoin:miter;stroke-opacity:1" />
      <path
         sodipodi:nodetypes="cssc"
         inkscape:connector-curvature="0"
         id="path8568"
         d="m 158.82824,-20.819725 c 0,0 1.08672,0.876705 1.3898,1.482469 0.23856,0.476802 0.32279,1.043853 0.27796,1.575116 -0.0386,0.457507 -0.46326,1.297156 -0.46326,1.297156"
         style="fill:none;stroke:#000000;stroke-width:0.51886255px;stroke-linecap:round;stroke-linejoin:miter;stroke-opacity:1" />
      <path
         sodipodi:nodetypes="ssssssssss"
         inkscape:connector-curvature="0"
         id="path8570"
         d="m 149.54468,-2.7465657 c -0.38448,-0.4433064 -0.26851,-1.2386575 0,-1.7604296 0.36472,-0.7087039 1.22213,-1.0556558 1.94574,-1.3898098 0.46244,-0.2135472 0.9848,-0.4792212 1.48246,-0.3706121 0.19316,0.042163 0.36195,0.2007847 0.46328,0.3706121 0.17689,0.2965292 0.19336,0.6739892 0.18532,1.0191977 -0.01,0.4119393 -0.0622,0.8535239 -0.27796,1.2045019 -0.25274,0.4109254 -0.67009,0.7326267 -1.11184,0.9265398 -0.42796,0.1878691 -0.92246,0.1874769 -1.38982,0.1853001 -0.43679,-0.00196 -1.011,0.1446671 -1.29718,-0.1853001 z"
         style="fill:none;stroke:#000000;stroke-width:0.51886255px;stroke-linecap:butt;stroke-linejoin:miter;stroke-opacity:1" />
      <path
         sodipodi:nodetypes="csssssssssc"
         inkscape:connector-curvature="0"
         id="path8572"
         d="m 160.63184,-4.2833036 c -0.19022,-0.3240684 -0.25741,-0.7255121 -0.18728,-1.0946475 0.0673,-0.3538528 0.006,-0.7245315 0.29153,-0.9437461 0.35681,-0.2736967 0.84796,-0.3497229 1.29716,-0.370614 0.50223,-0.023356 1.1086,-0.058204 1.48246,0.27796 0.47954,0.4311831 0.58922,1.2090515 0.55592,1.8530817 -0.0208,0.4009633 -0.15649,0.8527649 -0.46326,1.1118498 -0.31479,0.2658936 -0.79291,0.1469419 -1.2045,0.1273901 -0.39023,-0.01863 -0.76869,-0.033358 -1.11186,-0.2200519 -0.34742,-0.1890066 -0.45998,-0.4001005 -0.66013,-0.74123 z"
         style="fill:none;stroke:#000000;stroke-width:0.51886255px;stroke-linecap:butt;stroke-linejoin:miter;stroke-opacity:1" />
      <path
         inkscape:connector-curvature="0"
         id="path8574"
         d="m 78.748747,50.705171 c 0,0 -0.119469,4.894803 0,7.337826 0.109325,2.235561 0.119995,4.509349 0.655163,6.68266 0.416954,1.693241 0.712748,3.635127 1.965487,4.848205 1.270688,1.230458 3.259071,1.42252 4.97924,1.83446 2.908323,0.696474 5.923059,0.905703 8.910214,1.048258 4.014714,0.191593 8.057839,0.159102 12.054999,-0.262061 3.71432,-0.391362 7.52244,-0.751555 11.00674,-2.096521 3.43825,-1.32719 7.41565,-2.681949 9.43434,-5.765437 0.70036,-1.069777 0.73199,-2.538315 0.52413,-3.799947 -0.22228,-1.349134 -0.88213,-3.043305 -1.55097,-4.235877 -0.80623,-1.437564 -1.5926,-2.627834 -2.90413,-3.626078 -1.34158,-1.021117 -3.535,-2.49871 -4.84821,-1.44136 -0.92107,0.741613 -0.29734,2.199011 -0.0214,3.348893 0.3426,1.427711 0.84464,2.619392 1.60892,3.873026 0.91991,1.508883 1.52085,3.095909 2.93438,4.156503 0.95423,0.715967 4.12626,1.72484 4.12626,1.72484 v 0"
         style="fill:none;stroke:#000000;stroke-width:0.51886255px;stroke-linecap:butt;stroke-linejoin:miter;stroke-opacity:1"
         sodipodi:nodetypes="cssssssssssssssssc" />
      <path
         sodipodi:nodetypes="cc"
         inkscape:connector-curvature="0"
         id="path8576"
         d="m 102.12791,46.767899 c 0.3037,-0.3037 0.8949,3.271585 -0.62362,7.589768"
         style="fill:none;stroke:#000000;stroke-width:0.51886255px;stroke-linecap:butt;stroke-linejoin:miter;stroke-opacity:1" />
      <path
         sodipodi:nodetypes="cssc"
         inkscape:connector-curvature="0"
         id="path8578"
         d="m 101.81302,54.200218 c 0,0 2.40787,-0.254778 3.81506,-0.612329 1.91013,-0.48534 5.73831,-1.041908 7.65531,-1.499318 1.7517,-0.417968 5.4303,-1.121334 5.4303,-1.121334"
         style="fill:none;stroke:#000000;stroke-width:0.51886255px;stroke-linecap:butt;stroke-linejoin:miter;stroke-opacity:1" />
    </g>
  </g>
</svg>
